<svg width="14" height="16" viewBox="0 0 14 16" fill="none" xmlns="http://www.w3.org/2000/svg">
<path d="M3.09756 8.44532C9 5.98836 12.5 1 12.5 1H7.95935M3.09756 8.44532H2.43902M3.09756 8.44532H1M3.09756 8.44532C3.09756 8.44532 3.13024 10.8805 3.3252 11.5277C3.70866 12.8006 4.46341 13.5 5 14C3.20488 14.7148 1.60705 15.022 1 14.9972V8.44532M1 8.44532V1H4.46341M1 8.44532H1.78049M1.78049 8.44532C2.34959 7.49231 4.00813 4.52908 4.46341 1M1.78049 8.44532H2.43902M4.46341 1H7.95935M2.43902 8.44532C3.63415 7.5767 6.88618 4.85667 7.95935 1" stroke="#242424" stroke-width="1.3"/>
<path d="M1 11H3.09756" stroke="#FF3E3E" stroke-width="1.3"/>
</svg>
