<svg width="17" height="18" viewBox="0 0 17 18" fill="none" xmlns="http://www.w3.org/2000/svg">
<path d="M14.3937 4.40426H1.45752M14.3937 4.40426V4.40426C15.3337 4.40426 16.0958 3.64219 16.0958 2.70213V2.70213C16.0958 1.76207 15.3337 1 14.3937 1H3.45752C2.35295 1 1.45752 1.89543 1.45752 3V4.40426M14.3937 4.40426V16C14.3937 16.5523 13.946 17 13.3937 17H2.45752C1.90523 17 1.45752 16.5523 1.45752 16V4.40426" stroke="#242424" stroke-width="1.3"/>
<circle cx="3.15966" cy="2.70213" r="0.851064" stroke="#242424" stroke-width="1.3"/>
<path d="M5 13.85C4.64101 13.85 4.35 14.141 4.35 14.5C4.35 14.859 4.64101 15.15 5 15.15V13.85ZM14 13.85H5V15.15H14V13.85Z" fill="#FF3E3E"/>
</svg>
