<svg width="16" height="18" viewBox="0 0 16 18" fill="none" xmlns="http://www.w3.org/2000/svg">
<path d="M2.0747 1H14.1489C14.619 1 15 1.38103 15 1.85106C15 2.32109 14.619 2.70213 14.1489 2.70213H2.0747C1.60467 2.70213 1.22363 2.32109 1.22363 1.85106C1.22363 1.38103 1.60467 1 2.0747 1Z" stroke="#242424" stroke-width="1.3"/>
<path d="M1.55176 15L1.55176 16C1.55176 16.5523 1.99947 17 2.55176 17H11.228" stroke="#242424" stroke-width="1.3"/>
<path d="M14.6714 15V16C14.6714 16.5523 14.2237 17 13.6714 17H13.1953" stroke="#242424" stroke-width="1.3"/>
<path d="M1.55176 11.5L1.55176 12.5C1.55176 13.0523 1.99947 13.5 2.55176 13.5H11.228" stroke="#242424" stroke-width="1.3"/>
<path d="M14.6714 11.5V12.5C14.6714 13.0523 14.2237 13.5 13.6714 13.5H13.1953" stroke="#242424" stroke-width="1.3"/>
<path d="M1.55176 8L1.55176 8.99999C1.55176 9.55228 1.99947 9.99999 2.55176 9.99999H11.228" stroke="#242424" stroke-width="1.3"/>
<path d="M14.6714 8V8.99999C14.6714 9.55228 14.2237 9.99999 13.6714 9.99999H13.1953" stroke="#242424" stroke-width="1.3"/>
<path d="M1.55176 4.5L1.55176 5.49999C1.55176 6.05228 1.99947 6.49999 2.55176 6.49999H11.228" stroke="#242424" stroke-width="1.3"/>
<path d="M14.6714 4.5V5.49999C14.6714 6.05228 14.2237 6.49999 13.6714 6.49999H13.1953" stroke="#242424" stroke-width="1.3"/>
<path d="M12.2002 3L12.2002 16" stroke="#FF3E3E" stroke-width="1.3"/>
</svg>
