<svg width="28" height="28" viewBox="0 0 28 28" fill="none" xmlns="http://www.w3.org/2000/svg">
<path d="M7.22363 17.8053L11.2143 12.62L15.7663 16.1933L19.6716 11.1533" stroke="black" stroke-width="1.5" stroke-linecap="round" stroke-linejoin="round"/>
<path fill-rule="evenodd" clip-rule="evenodd" d="M24.2233 1.1333C25.6393 1.1333 26.786 2.27997 26.786 3.69597C26.786 5.11063 25.6393 6.25863 24.2233 6.25863C22.8073 6.25863 21.6606 5.11063 21.6606 3.69597C21.6606 2.27997 22.8073 1.1333 24.2233 1.1333Z" stroke="#FF3E3E" stroke-width="1.5" stroke-linecap="round" stroke-linejoin="round"/>
<path d="M25.6746 10.3588C25.8519 11.5521 25.9333 12.8961 25.9333 14.4041C25.9333 23.6548 22.8506 26.7375 13.5999 26.7375C4.3506 26.7375 1.2666 23.6548 1.2666 14.4041C1.2666 5.1548 4.3506 2.0708 13.5999 2.0708C15.0799 2.0708 16.4013 2.14947 17.5773 2.32013" stroke="black" stroke-width="1.5" stroke-linecap="round" stroke-linejoin="round"/>
</svg>
