<svg width="26" height="30" viewBox="0 0 26 30" fill="none" xmlns="http://www.w3.org/2000/svg">
<path d="M1.12402 11.5386H24.8893" stroke="black" stroke-width="1.5" stroke-linecap="round" stroke-linejoin="round"/>
<path fill-rule="evenodd" clip-rule="evenodd" d="M6.07764 16.7461C6.07764 16.1938 6.52535 15.7461 7.07764 15.7461H7.08999C7.64227 15.7461 8.08999 16.1938 8.08999 16.7461C8.08999 17.2984 7.64227 17.7461 7.08999 17.7461H7.07764C6.52535 17.7461 6.07764 17.2984 6.07764 16.7461ZM13.0066 15.7461C12.4543 15.7461 12.0066 16.1938 12.0066 16.7461C12.0066 17.2984 12.4543 17.7461 13.0066 17.7461H13.019C13.5712 17.7461 14.019 17.2984 14.019 16.7461C14.019 16.1938 13.5712 15.7461 13.019 15.7461H13.0066ZM18.9232 15.7461C18.3709 15.7461 17.9232 16.1938 17.9232 16.7461C17.9232 17.2984 18.3709 17.7461 18.9232 17.7461H18.9356C19.4879 17.7461 19.9356 17.2984 19.9356 16.7461C19.9356 16.1938 19.4879 15.7461 18.9356 15.7461H18.9232ZM18.9232 20.9281C18.3709 20.9281 17.9232 21.3758 17.9232 21.9281C17.9232 22.4803 18.3709 22.9281 18.9232 22.9281H18.9356C19.4879 22.9281 19.9356 22.4803 19.9356 21.9281C19.9356 21.3758 19.4879 20.9281 18.9356 20.9281H18.9232ZM12.0066 21.9281C12.0066 21.3758 12.4543 20.9281 13.0066 20.9281H13.019C13.5712 20.9281 14.019 21.3758 14.019 21.9281C14.019 22.4803 13.5712 22.9281 13.019 22.9281H13.0066C12.4543 22.9281 12.0066 22.4803 12.0066 21.9281ZM7.07764 20.9281C6.52535 20.9281 6.07764 21.3758 6.07764 21.9281C6.07764 22.4803 6.52535 22.9281 7.07764 22.9281H7.08999C7.64227 22.9281 8.08999 22.4803 8.08999 21.9281C8.08999 21.3758 7.64227 20.9281 7.08999 20.9281H7.07764Z" fill="#FF3E3E"/>
<path d="M18.392 1.6665V6.05421" stroke="black" stroke-width="1.5" stroke-linecap="round" stroke-linejoin="round"/>
<path d="M7.62102 1.6665V6.05421" stroke="black" stroke-width="1.5" stroke-linecap="round" stroke-linejoin="round"/>
<path fill-rule="evenodd" clip-rule="evenodd" d="M18.6515 3.77197H7.36177C3.44619 3.77197 1.00049 5.95322 1.00049 9.96267V22.0289C1.00049 26.1014 3.44619 28.333 7.36177 28.333H18.6392C22.5671 28.333 25.0004 26.1392 25.0004 22.1297V9.96267C25.0128 5.95322 22.5794 3.77197 18.6515 3.77197Z" stroke="black" stroke-width="1.5" stroke-linecap="round" stroke-linejoin="round"/>
</svg>
