<svg width="26" height="26" viewBox="0 0 26 26" fill="none" xmlns="http://www.w3.org/2000/svg">
<path fill-rule="evenodd" clip-rule="evenodd" d="M14.4728 2.56918L16.9094 7.43684C17.1482 7.91471 17.6091 8.24607 18.1436 8.32275L23.5943 9.10732C24.941 9.30176 25.4769 10.9339 24.5022 11.8691L20.5607 15.6564C20.1734 16.0289 19.9971 16.5642 20.0887 17.09L21.0189 22.4369C21.248 23.7596 19.8402 24.7687 18.6365 24.143L13.7648 21.6167C13.2872 21.3689 12.7152 21.3689 12.2362 21.6167L7.36449 24.143C6.1608 24.7687 4.75301 23.7596 4.98348 22.4369L5.91228 17.09C6.00391 16.5642 5.82759 16.0289 5.44025 15.6564L1.49873 11.8691C0.524109 10.9339 1.06001 9.30176 2.40671 9.10732L7.85736 8.32275C8.39187 8.24607 8.85419 7.91471 9.09299 7.43684L11.5281 2.56918C12.1307 1.36561 13.8703 1.36561 14.4728 2.56918Z" stroke="black" stroke-width="1.5" stroke-linecap="round" stroke-linejoin="round"/>
<path d="M14 11L14.8041 11.8041C14.9323 11.9323 15.0929 12.0232 15.2687 12.0672L17 12.5" stroke="#FF3E3E" stroke-width="1.5" stroke-linecap="round" stroke-linejoin="round"/>
</svg>
