<svg width="154" height="56" viewBox="0 0 154 56" fill="none" xmlns="http://www.w3.org/2000/svg">
<path d="M4.83789 53.1172C5.59961 53.1172 6.25586 52.8301 6.81836 52.2441C7.38086 51.6582 7.66211 50.9492 7.66211 50.1172C7.66211 49.2851 7.38086 48.582 6.81836 47.9961C6.25586 47.4101 5.59961 47.1172 4.83789 47.1172C4.49805 47.1172 4.16992 47.1934 3.84766 47.334C3.51953 47.4805 3.30859 47.5976 3.20898 47.6855C3.10938 47.7793 3.0332 47.8496 2.98047 47.9023V47.2402H1.7793V55.5195H2.98047V52.3379L3.0625 52.4258C3.10938 52.4726 3.19141 52.5371 3.30273 52.6191C3.41406 52.7012 3.54297 52.7773 3.68945 52.8535C3.83008 52.9297 4.00586 52.9941 4.21094 53.041C4.41016 53.0937 4.62109 53.1172 4.83789 53.1172ZM4.7207 48.2012C5.17773 48.2012 5.58203 48.3887 5.93359 48.7637C6.28516 49.1387 6.46094 49.5957 6.46094 50.123C6.46094 50.6504 6.28516 51.1016 5.93359 51.4766C5.58203 51.8516 5.17773 52.0391 4.7207 52.0391C4.26367 52.0391 3.85938 51.8516 3.50781 51.4766C3.15625 51.1016 2.98047 50.6504 2.98047 50.123C2.98047 49.5957 3.15625 49.1387 3.50781 48.7637C3.85938 48.3887 4.26367 48.2012 4.7207 48.2012ZM13.5977 53V49.2793C13.5977 48.6699 13.3691 48.1601 12.9238 47.7441C12.4727 47.3281 11.8984 47.1172 11.1953 47.1172C10.9141 47.1172 10.6387 47.1582 10.375 47.2344C10.1113 47.3105 9.90039 47.3984 9.74219 47.4922C9.57812 47.5918 9.42578 47.7031 9.28516 47.8262C9.14453 47.9492 9.05078 48.0371 9.00977 48.084C8.96875 48.1309 8.93945 48.1719 8.91602 48.2012L9.69531 48.9805L9.85352 48.7754C9.94727 48.6465 10.1172 48.5234 10.3633 48.3945C10.6094 48.2656 10.8906 48.2012 11.1953 48.2012C11.5469 48.2012 11.834 48.3066 12.0566 48.5117C12.2793 48.7226 12.3965 48.9746 12.3965 49.2793L10.293 49.6426C9.77148 49.7305 9.36133 49.9355 9.0625 50.2519C8.76367 50.5742 8.61719 50.9726 8.61719 51.4473C8.61719 51.8809 8.81055 52.2734 9.19727 52.6133C9.58398 52.9531 10.0703 53.123 10.6562 53.123C10.8555 53.123 11.0488 53.0937 11.248 53.0469C11.4414 52.9941 11.6055 52.9355 11.7344 52.8711C11.8633 52.8066 11.9805 52.7363 12.0918 52.6543C12.2031 52.5723 12.2793 52.5195 12.3145 52.4844C12.3496 52.4492 12.3789 52.4199 12.3965 52.4082V53.0059L13.5977 53ZM10.8379 52.0449C10.5215 52.0449 10.2754 51.9687 10.0879 51.8281C9.90039 51.6816 9.8125 51.5117 9.8125 51.3184C9.8125 51.1133 9.87695 50.9434 10.0117 50.8086C10.1406 50.668 10.3164 50.5801 10.5332 50.5449L12.3965 50.2461V50.3633C12.3965 50.9023 12.2559 51.3125 11.9805 51.6055C11.7051 51.8984 11.3242 52.0449 10.8379 52.0449ZM18.5195 48.2598V47.1172H18.2207C18.0215 47.1172 17.8223 47.1465 17.623 47.1992C17.4238 47.2519 17.2656 47.3105 17.1367 47.375C17.0078 47.4394 16.8906 47.5098 16.7734 47.5918C16.6621 47.6738 16.5859 47.7266 16.5508 47.7617L16.4746 47.8379V47.2402H15.2734V53H16.4746V49.8828C16.4746 49.3555 16.6152 48.9394 16.8848 48.6465C17.1543 48.3535 17.5176 48.2012 17.9746 48.2012C18.1738 48.2012 18.3555 48.2246 18.5195 48.2598ZM24.8125 50.5391L24.877 49.9414C24.877 49.1328 24.6074 48.4648 24.0684 47.9258C23.5293 47.3867 22.8613 47.1172 22.0527 47.1172C21.2441 47.1172 20.5527 47.4101 19.9785 47.9844C19.4043 48.5586 19.1113 49.25 19.1113 50.0586C19.1113 50.9023 19.4102 51.623 20.002 52.2207C20.5938 52.8184 21.2969 53.1172 22.1113 53.1172C22.416 53.1172 22.7148 53.0762 23.002 52.9883C23.2891 52.9004 23.5234 52.8066 23.6992 52.7012C23.8809 52.5957 24.0508 52.4785 24.209 52.3437C24.373 52.209 24.4785 52.1152 24.5254 52.0566C24.5723 51.998 24.6074 51.957 24.6309 51.9219L23.8516 51.1426L23.6699 51.3652C23.5527 51.5117 23.3477 51.6582 23.0547 51.8105C22.7617 51.9629 22.4512 52.0391 22.1113 52.0391C21.6484 52.0391 21.25 51.8926 20.9102 51.5937C20.5703 51.3008 20.3711 50.9492 20.3066 50.5391H24.8125ZM22.0469 48.1426C22.4922 48.1426 22.8555 48.2715 23.1484 48.5293C23.4414 48.7871 23.623 49.1152 23.6934 49.5195H20.3594C20.4648 49.1152 20.6641 48.7871 20.957 48.5293C21.25 48.2715 21.6133 48.1426 22.0469 48.1426ZM33.6309 53H34.832V49.6426C34.832 48.8223 34.6387 48.1953 34.252 47.7617C33.8652 47.334 33.3379 47.1172 32.6641 47.1172C32.418 47.1172 32.1836 47.1523 31.9551 47.2226C31.7266 47.293 31.5391 47.3691 31.3984 47.4512C31.2578 47.5332 31.1289 47.6328 31.0059 47.7441C30.8828 47.8613 30.8008 47.9375 30.7656 47.9785C30.7305 48.0254 30.7012 48.0547 30.6836 48.0781L30.625 47.9844C30.5898 47.9258 30.5254 47.8437 30.4316 47.7441C30.3379 47.6504 30.2324 47.5508 30.1035 47.457C29.9805 47.3633 29.8164 47.2812 29.6055 47.2168C29.3945 47.1523 29.1777 47.1172 28.9434 47.1172C28.6562 47.1172 28.3809 47.1875 28.1113 47.3164C27.8418 47.4512 27.666 47.5566 27.584 47.6387C27.502 47.7207 27.4316 47.7851 27.3848 47.8379V47.2402H26.1836V53H27.3848V49.8828C27.3848 49.3613 27.5137 48.9512 27.7656 48.6523C28.0176 48.3535 28.3281 48.2012 28.7031 48.2012C29.0723 48.2012 29.3652 48.3242 29.582 48.5703C29.7988 48.8164 29.9043 49.1738 29.9043 49.6426V53H31.1055V49.8828C31.1055 49.3613 31.2344 48.9512 31.4863 48.6523C31.7383 48.3535 32.0488 48.2012 32.4238 48.2012C32.793 48.2012 33.0859 48.3242 33.3027 48.5703C33.5195 48.8164 33.625 49.1738 33.625 49.6426L33.6309 53ZM37.2344 46.5195C37.2344 47 37.0352 47.2402 36.6367 47.2402H36.0332V48.3184H37.1172V51.3184C37.1113 52.5195 37.668 53.1172 38.7871 53.1172C39.1152 53.1172 39.3965 53.082 39.6309 53V51.9219L39.543 51.9453C39.4902 51.9687 39.4141 51.9922 39.3145 52.0098C39.2148 52.0332 39.1211 52.0391 39.0273 52.0391C38.8223 52.0391 38.6523 51.9746 38.5176 51.834C38.377 51.6992 38.3125 51.5234 38.3125 51.3066V48.3184H39.5137V47.2402H38.3125V45.3184H37.2344V46.5195ZM45.4492 53V49.2793C45.4492 48.6699 45.2207 48.1601 44.7754 47.7441C44.3242 47.3281 43.75 47.1172 43.0469 47.1172C42.7656 47.1172 42.4902 47.1582 42.2266 47.2344C41.9629 47.3105 41.752 47.3984 41.5938 47.4922C41.4297 47.5918 41.2773 47.7031 41.1367 47.8262C40.9961 47.9492 40.9023 48.0371 40.8613 48.084C40.8203 48.1309 40.791 48.1719 40.7676 48.2012L41.5469 48.9805L41.7051 48.7754C41.7988 48.6465 41.9688 48.5234 42.2148 48.3945C42.4609 48.2656 42.7422 48.2012 43.0469 48.2012C43.3984 48.2012 43.6855 48.3066 43.9082 48.5117C44.1309 48.7226 44.248 48.9746 44.248 49.2793L42.1445 49.6426C41.623 49.7305 41.2129 49.9355 40.9141 50.2519C40.6152 50.5742 40.4688 50.9726 40.4688 51.4473C40.4688 51.8809 40.6621 52.2734 41.0488 52.6133C41.4355 52.9531 41.9219 53.123 42.5078 53.123C42.707 53.123 42.9004 53.0937 43.0996 53.0469C43.293 52.9941 43.457 52.9355 43.5859 52.8711C43.7148 52.8066 43.832 52.7363 43.9434 52.6543C44.0547 52.5723 44.1309 52.5195 44.166 52.4844C44.2012 52.4492 44.2305 52.4199 44.248 52.4082V53.0059L45.4492 53ZM42.6895 52.0449C42.373 52.0449 42.127 51.9687 41.9395 51.8281C41.752 51.6816 41.6641 51.5117 41.6641 51.3184C41.6641 51.1133 41.7285 50.9434 41.8633 50.8086C41.9922 50.668 42.168 50.5801 42.3848 50.5449L44.248 50.2461V50.3633C44.248 50.9023 44.1074 51.3125 43.832 51.6055C43.5566 51.8984 43.1758 52.0449 42.6895 52.0449ZM50.793 47.9023L50.7168 47.8144C50.6699 47.7676 50.5938 47.709 50.4883 47.6269C50.3828 47.5449 50.2656 47.4687 50.1309 47.3926C49.9902 47.3164 49.8145 47.2519 49.5977 47.1992C49.3809 47.1465 49.1582 47.1172 48.9297 47.1172C48.3438 47.1172 47.8574 47.2871 47.4707 47.6269C47.084 47.9668 46.8906 48.3594 46.8906 48.7988C46.8906 49.1211 46.9609 49.3965 47.1074 49.625C47.248 49.8535 47.4297 50.0234 47.6523 50.1289C47.875 50.2344 48.1094 50.334 48.3613 50.4219C48.6133 50.5098 48.8477 50.5859 49.0703 50.6445C49.2871 50.7031 49.4688 50.791 49.6152 50.9023C49.7559 51.0137 49.832 51.1543 49.832 51.3184C49.832 51.541 49.75 51.7168 49.5918 51.8457C49.4277 51.9746 49.1875 52.0391 48.8711 52.0391C48.6016 52.0391 48.3438 51.9746 48.0918 51.8457C47.8398 51.7168 47.6758 51.6055 47.5996 51.5234C47.5234 51.4414 47.4648 51.3769 47.4297 51.3184L46.6504 52.0976L46.7383 52.209C46.791 52.2793 46.8789 52.3672 47.002 52.4668C47.125 52.5664 47.2715 52.666 47.4355 52.7598C47.5996 52.8594 47.8047 52.9414 48.0625 53.0117C48.3203 53.082 48.5898 53.1172 48.8711 53.1172C49.5098 53.1172 50.0312 52.9414 50.4297 52.5898C50.8281 52.2383 51.0332 51.8164 51.0332 51.3184C51.0332 51.0019 50.957 50.7266 50.8164 50.498C50.6699 50.2754 50.4883 50.1055 50.2656 49.9941C50.043 49.8887 49.8086 49.7891 49.5566 49.7012C49.3047 49.6133 49.0703 49.5371 48.8535 49.4785C48.6309 49.4199 48.4492 49.3379 48.3086 49.2207C48.1621 49.1094 48.0918 48.9687 48.0918 48.7988C48.0918 48.6406 48.1621 48.5 48.3145 48.3828C48.4668 48.2656 48.6719 48.2012 48.9297 48.2012C49.1172 48.2012 49.3105 48.248 49.498 48.3359C49.6855 48.4238 49.8145 48.4941 49.873 48.5527C49.9316 48.6113 49.9785 48.6523 50.0078 48.6816L50.793 47.9023ZM57.748 44.5976C57.5781 44.9375 57.3613 45.1953 57.0977 45.3828C56.834 45.5703 56.4531 45.6875 55.9492 45.7402V46.6426H57.4492V53H58.7676V44.5976H57.748ZM65.6641 47.3574C65.3828 47.3574 65.1426 47.3984 64.9434 47.4805L66.8066 44.5976H65.4824L63.0859 48.3184L62.916 48.5586C62.7988 48.7226 62.6875 48.9629 62.582 49.2793C62.4766 49.6016 62.4238 49.9238 62.4238 50.2461C62.4238 51.0312 62.7109 51.7051 63.2969 52.2734C63.8828 52.8359 64.5918 53.123 65.4238 53.123C66.2559 53.123 66.959 52.8359 67.5449 52.2734C68.1309 51.7051 68.4238 51.0312 68.4238 50.2461C68.4238 49.4668 68.1426 48.793 67.5859 48.2187C67.0293 47.6445 66.3906 47.3574 65.6641 47.3574ZM67.2227 50.2402C67.2227 50.7207 67.0469 51.1309 66.7012 51.4707C66.3496 51.8105 65.9277 51.9805 65.4238 51.9805C64.9199 51.9805 64.4922 51.8105 64.1465 51.4707C63.7949 51.1309 63.625 50.7207 63.625 50.2402C63.625 49.7598 63.7949 49.3496 64.1465 49.0098C64.4922 48.6699 64.9199 48.5 65.4238 48.5C65.9277 48.5 66.3496 48.6699 66.7012 49.0098C67.0469 49.3496 67.2227 49.7598 67.2227 50.2402ZM69.6191 48.7988C69.6191 50.1113 69.959 51.1601 70.6445 51.9453C71.3242 52.7305 72.1621 53.1172 73.1582 53.1172C74.1484 53.1172 74.9863 52.7305 75.6719 51.9453C76.3574 51.1601 76.7031 50.1113 76.7031 48.7988C76.7031 47.4863 76.3574 46.4434 75.6719 45.6582C74.9863 44.873 74.1484 44.4805 73.1582 44.4805C72.1621 44.4805 71.3242 44.873 70.6445 45.6582C69.959 46.4434 69.6191 47.4863 69.6191 48.7988ZM75.3789 48.7988C75.3789 49.7715 75.1562 50.5332 74.7227 51.0898C74.2891 51.6465 73.7676 51.9219 73.1582 51.9219C72.5488 51.9219 72.0273 51.6465 71.5879 51.0898C71.1543 50.5332 70.9316 49.7715 70.9316 48.7988C70.9316 47.832 71.1543 47.0703 71.5879 46.5137C72.0273 45.9629 72.5488 45.6816 73.1582 45.6816C73.7676 45.6816 74.2891 45.9629 74.7227 46.5137C75.1562 47.0703 75.3789 47.832 75.3789 48.7988ZM84.8008 53V49.2793C84.8008 48.6699 84.5723 48.1601 84.127 47.7441C83.6758 47.3281 83.1016 47.1172 82.3984 47.1172C82.1172 47.1172 81.8418 47.1582 81.5781 47.2344C81.3145 47.3105 81.1035 47.3984 80.9453 47.4922C80.7812 47.5918 80.6289 47.7031 80.4883 47.8262C80.3477 47.9492 80.2539 48.0371 80.2129 48.084C80.1719 48.1309 80.1426 48.1719 80.1191 48.2012L80.8984 48.9805L81.0566 48.7754C81.1504 48.6465 81.3203 48.5234 81.5664 48.3945C81.8125 48.2656 82.0938 48.2012 82.3984 48.2012C82.75 48.2012 83.0371 48.3066 83.2598 48.5117C83.4824 48.7226 83.5996 48.9746 83.5996 49.2793L81.4961 49.6426C80.9746 49.7305 80.5645 49.9355 80.2656 50.2519C79.9668 50.5742 79.8203 50.9726 79.8203 51.4473C79.8203 51.8809 80.0137 52.2734 80.4004 52.6133C80.7871 52.9531 81.2734 53.123 81.8594 53.123C82.0586 53.123 82.252 53.0937 82.4512 53.0469C82.6445 52.9941 82.8086 52.9355 82.9375 52.8711C83.0664 52.8066 83.1836 52.7363 83.2949 52.6543C83.4062 52.5723 83.4824 52.5195 83.5176 52.4844C83.5527 52.4492 83.582 52.4199 83.5996 52.4082V53.0059L84.8008 53ZM82.041 52.0449C81.7246 52.0449 81.4785 51.9687 81.291 51.8281C81.1035 51.6816 81.0156 51.5117 81.0156 51.3184C81.0156 51.1133 81.0801 50.9434 81.2148 50.8086C81.3438 50.668 81.5195 50.5801 81.7363 50.5449L83.5996 50.2461V50.3633C83.5996 50.9023 83.459 51.3125 83.1836 51.6055C82.9082 51.8984 82.5273 52.0449 82.041 52.0449ZM87.2031 46.5195C87.2031 47 87.0039 47.2402 86.6055 47.2402H86.002V48.3184H87.0859V51.3184C87.0801 52.5195 87.6367 53.1172 88.7559 53.1172C89.084 53.1172 89.3652 53.082 89.5996 53V51.9219L89.5117 51.9453C89.459 51.9687 89.3828 51.9922 89.2832 52.0098C89.1836 52.0332 89.0898 52.0391 88.9961 52.0391C88.791 52.0391 88.6211 51.9746 88.4863 51.834C88.3457 51.6992 88.2812 51.5234 88.2812 51.3066V48.3184H89.4824V47.2402H88.2812V45.3184H87.2031V46.5195ZM94.457 47.9023L94.3809 47.8144C94.334 47.7676 94.2578 47.709 94.1523 47.6269C94.0469 47.5449 93.9297 47.4687 93.7949 47.3926C93.6543 47.3164 93.4785 47.2519 93.2617 47.1992C93.0449 47.1465 92.8223 47.1172 92.5938 47.1172C92.0078 47.1172 91.5215 47.2871 91.1348 47.6269C90.748 47.9668 90.5547 48.3594 90.5547 48.7988C90.5547 49.1211 90.625 49.3965 90.7715 49.625C90.9121 49.8535 91.0938 50.0234 91.3164 50.1289C91.5391 50.2344 91.7734 50.334 92.0254 50.4219C92.2773 50.5098 92.5117 50.5859 92.7344 50.6445C92.9512 50.7031 93.1328 50.791 93.2793 50.9023C93.4199 51.0137 93.4961 51.1543 93.4961 51.3184C93.4961 51.541 93.4141 51.7168 93.2559 51.8457C93.0918 51.9746 92.8516 52.0391 92.5352 52.0391C92.2656 52.0391 92.0078 51.9746 91.7559 51.8457C91.5039 51.7168 91.3398 51.6055 91.2637 51.5234C91.1875 51.4414 91.1289 51.3769 91.0938 51.3184L90.3145 52.0976L90.4023 52.209C90.4551 52.2793 90.543 52.3672 90.666 52.4668C90.7891 52.5664 90.9355 52.666 91.0996 52.7598C91.2637 52.8594 91.4688 52.9414 91.7266 53.0117C91.9844 53.082 92.2539 53.1172 92.5352 53.1172C93.1738 53.1172 93.6953 52.9414 94.0938 52.5898C94.4922 52.2383 94.6973 51.8164 94.6973 51.3184C94.6973 51.0019 94.6211 50.7266 94.4805 50.498C94.334 50.2754 94.1523 50.1055 93.9297 49.9941C93.707 49.8887 93.4727 49.7891 93.2207 49.7012C92.9688 49.6133 92.7344 49.5371 92.5176 49.4785C92.2949 49.4199 92.1133 49.3379 91.9727 49.2207C91.8262 49.1094 91.7559 48.9687 91.7559 48.7988C91.7559 48.6406 91.8262 48.5 91.9785 48.3828C92.1309 48.2656 92.3359 48.2012 92.5938 48.2012C92.7812 48.2012 92.9746 48.248 93.1621 48.3359C93.3496 48.4238 93.4785 48.4941 93.5371 48.5527C93.5957 48.6113 93.6426 48.6523 93.6719 48.6816L94.457 47.9023ZM97.2695 47.2402H96.0684V53H97.2695V47.2402ZM97.3926 45.4414C97.3926 45.2363 97.3223 45.0664 97.1875 44.9316C97.0469 44.791 96.877 44.7266 96.6719 44.7266C96.4609 44.7266 96.291 44.791 96.1562 44.9316C96.0156 45.0664 95.9512 45.2363 95.9512 45.4414C95.9512 45.6523 96.0156 45.8223 96.1562 45.957C96.291 46.0976 96.4609 46.1621 96.6719 46.1621C96.877 46.1621 97.0469 46.0976 97.1875 45.957C97.3223 45.8223 97.3926 45.6523 97.3926 45.4414ZM100.328 44.5976H99.1328V53H100.328V44.5976ZM103.387 47.2402H102.186V53H103.387V47.2402ZM103.51 45.4414C103.51 45.2363 103.439 45.0664 103.305 44.9316C103.164 44.791 102.994 44.7266 102.789 44.7266C102.578 44.7266 102.408 44.791 102.273 44.9316C102.133 45.0664 102.068 45.2363 102.068 45.4414C102.068 45.6523 102.133 45.8223 102.273 45.957C102.408 46.0976 102.578 46.1621 102.789 46.1621C102.994 46.1621 103.164 46.0976 103.305 45.957C103.439 45.8223 103.51 45.6523 103.51 45.4414ZM110.465 50.5391L110.529 49.9414C110.529 49.1328 110.26 48.4648 109.721 47.9258C109.182 47.3867 108.514 47.1172 107.705 47.1172C106.896 47.1172 106.205 47.4101 105.631 47.9844C105.057 48.5586 104.764 49.25 104.764 50.0586C104.764 50.9023 105.062 51.623 105.654 52.2207C106.246 52.8184 106.949 53.1172 107.764 53.1172C108.068 53.1172 108.367 53.0762 108.654 52.9883C108.941 52.9004 109.176 52.8066 109.352 52.7012C109.533 52.5957 109.703 52.4785 109.861 52.3437C110.025 52.209 110.131 52.1152 110.178 52.0566C110.225 51.998 110.26 51.957 110.283 51.9219L109.504 51.1426L109.322 51.3652C109.205 51.5117 109 51.6582 108.707 51.8105C108.414 51.9629 108.104 52.0391 107.764 52.0391C107.301 52.0391 106.902 51.8926 106.562 51.5937C106.223 51.3008 106.023 50.9492 105.959 50.5391H110.465ZM107.699 48.1426C108.145 48.1426 108.508 48.2715 108.801 48.5293C109.094 48.7871 109.275 49.1152 109.346 49.5195H106.012C106.117 49.1152 106.316 48.7871 106.609 48.5293C106.902 48.2715 107.266 48.1426 107.699 48.1426ZM114.9 53.1172C115.662 53.1172 116.318 52.8301 116.881 52.2441C117.443 51.6582 117.725 50.9492 117.725 50.1172C117.725 49.2851 117.443 48.582 116.881 47.9961C116.318 47.4101 115.662 47.1172 114.9 47.1172C114.561 47.1172 114.232 47.1934 113.91 47.334C113.582 47.4805 113.371 47.5976 113.271 47.6855C113.172 47.7793 113.096 47.8496 113.043 47.9023V47.2402H111.842V55.5195H113.043V52.3379L113.125 52.4258C113.172 52.4726 113.254 52.5371 113.365 52.6191C113.477 52.7012 113.605 52.7773 113.752 52.8535C113.893 52.9297 114.068 52.9941 114.273 53.041C114.473 53.0937 114.684 53.1172 114.9 53.1172ZM114.783 48.2012C115.24 48.2012 115.645 48.3887 115.996 48.7637C116.348 49.1387 116.523 49.5957 116.523 50.123C116.523 50.6504 116.348 51.1016 115.996 51.4766C115.645 51.8516 115.24 52.0391 114.783 52.0391C114.326 52.0391 113.922 51.8516 113.57 51.4766C113.219 51.1016 113.043 50.6504 113.043 50.123C113.043 49.5957 113.219 49.1387 113.57 48.7637C113.922 48.3887 114.326 48.2012 114.783 48.2012ZM120.297 47.2402H119.096V53H120.297V47.2402ZM120.42 45.4414C120.42 45.2363 120.35 45.0664 120.215 44.9316C120.074 44.791 119.904 44.7266 119.699 44.7266C119.488 44.7266 119.318 44.791 119.184 44.9316C119.043 45.0664 118.979 45.2363 118.979 45.4414C118.979 45.6523 119.043 45.8223 119.184 45.957C119.318 46.0976 119.488 46.1621 119.699 46.1621C119.904 46.1621 120.074 46.0976 120.215 45.957C120.35 45.8223 120.42 45.6523 120.42 45.4414ZM129.479 53H130.68V49.6426C130.68 48.8223 130.486 48.1953 130.1 47.7617C129.713 47.334 129.186 47.1172 128.512 47.1172C128.266 47.1172 128.031 47.1523 127.803 47.2226C127.574 47.293 127.387 47.3691 127.246 47.4512C127.105 47.5332 126.977 47.6328 126.854 47.7441C126.73 47.8613 126.648 47.9375 126.613 47.9785C126.578 48.0254 126.549 48.0547 126.531 48.0781L126.473 47.9844C126.438 47.9258 126.373 47.8437 126.279 47.7441C126.186 47.6504 126.08 47.5508 125.951 47.457C125.828 47.3633 125.664 47.2812 125.453 47.2168C125.242 47.1523 125.025 47.1172 124.791 47.1172C124.504 47.1172 124.229 47.1875 123.959 47.3164C123.689 47.4512 123.514 47.5566 123.432 47.6387C123.35 47.7207 123.279 47.7851 123.232 47.8379V47.2402H122.031V53H123.232V49.8828C123.232 49.3613 123.361 48.9512 123.613 48.6523C123.865 48.3535 124.176 48.2012 124.551 48.2012C124.92 48.2012 125.213 48.3242 125.43 48.5703C125.646 48.8164 125.752 49.1738 125.752 49.6426V53H126.953V49.8828C126.953 49.3613 127.082 48.9512 127.334 48.6523C127.586 48.3535 127.896 48.2012 128.271 48.2012C128.641 48.2012 128.934 48.3242 129.15 48.5703C129.367 48.8164 129.473 49.1738 129.473 49.6426L129.479 53ZM136.439 53L136.311 53.1699C136.211 53.2812 136.117 53.4453 136.029 53.668C135.941 53.8906 135.9 54.1074 135.9 54.3242C135.9 54.6582 136.006 54.9336 136.229 55.1445C136.451 55.3555 136.738 55.4668 137.102 55.4668C137.418 55.4668 137.723 55.4023 138.004 55.2851V54.5644L137.916 54.5879C137.857 54.6113 137.775 54.6289 137.664 54.6523C137.553 54.6758 137.447 54.6875 137.342 54.6875C137.166 54.6875 137.02 54.6348 136.908 54.5293C136.797 54.4238 136.744 54.3008 136.744 54.1543C136.744 53.7851 136.902 53.3984 137.225 53H137.641V47.2402H136.439V50.3574C136.439 50.8906 136.299 51.3066 136.029 51.5996C135.76 51.8926 135.396 52.0391 134.939 52.0391C134.547 52.0391 134.219 51.9043 133.955 51.6289C133.691 51.3594 133.562 51.0137 133.562 50.5976V47.2402H132.361V50.5976C132.361 51.3711 132.572 51.9805 133.006 52.4375C133.439 52.8945 134.002 53.1172 134.699 53.1172C134.898 53.1172 135.098 53.0937 135.297 53.041C135.49 52.9941 135.654 52.9355 135.783 52.8711C135.912 52.8066 136.029 52.7363 136.141 52.6543C136.252 52.5723 136.328 52.5137 136.363 52.4785L136.439 52.4023V53ZM140.764 52.3437C140.764 52.1328 140.682 51.9512 140.529 51.793C140.371 51.6406 140.189 51.5586 139.979 51.5586C139.768 51.5586 139.586 51.6406 139.428 51.793C139.275 51.9512 139.193 52.1328 139.193 52.3437C139.193 52.5547 139.275 52.7363 139.428 52.8887C139.586 53.041 139.768 53.1172 139.979 53.1172C140.189 53.1172 140.371 53.041 140.529 52.8887C140.682 52.7363 140.764 52.5547 140.764 52.3437Z" fill="#242424" fill-opacity="0.7"/>
<path d="M94.5753 10.4659V9.01278L98.2188 3.27273H99.4716V5.28409H98.7301L96.4332 8.91903V8.98722H101.611V10.4659H94.5753ZM98.7642 12V10.0227L98.7983 9.37926V3.27273H100.528V12H98.7642ZM103.754 12.1108C103.473 12.1108 103.232 12.0114 103.03 11.8125C102.831 11.6108 102.732 11.3693 102.732 11.0881C102.732 10.8097 102.831 10.571 103.03 10.3722C103.232 10.1733 103.473 10.0739 103.754 10.0739C104.027 10.0739 104.266 10.1733 104.47 10.3722C104.675 10.571 104.777 10.8097 104.777 11.0881C104.777 11.2756 104.729 11.4474 104.632 11.6037C104.538 11.7571 104.415 11.8807 104.261 11.9744C104.108 12.0653 103.939 12.1108 103.754 12.1108ZM109.244 3.15341C109.693 3.15341 110.125 3.22869 110.539 3.37926C110.957 3.52983 111.329 3.76989 111.656 4.09943C111.985 4.42898 112.245 4.86648 112.436 5.41193C112.629 5.95455 112.727 6.62074 112.73 7.41051C112.73 8.15199 112.646 8.81392 112.478 9.39631C112.314 9.97585 112.076 10.4688 111.767 10.875C111.457 11.2812 111.083 11.5909 110.646 11.804C110.208 12.0142 109.72 12.1193 109.18 12.1193C108.598 12.1193 108.083 12.0071 107.637 11.7827C107.191 11.5554 106.832 11.2472 106.559 10.858C106.289 10.4659 106.126 10.0256 106.069 9.53693H107.889C107.96 9.85511 108.109 10.1023 108.336 10.2784C108.564 10.4517 108.845 10.5384 109.18 10.5384C109.748 10.5384 110.18 10.2912 110.475 9.79688C110.771 9.29972 110.92 8.61932 110.923 7.75568H110.863C110.733 8.01136 110.556 8.23153 110.335 8.41619C110.113 8.59801 109.859 8.73864 109.572 8.83807C109.288 8.9375 108.985 8.98722 108.664 8.98722C108.15 8.98722 107.691 8.86648 107.288 8.625C106.885 8.38352 106.566 8.05114 106.333 7.62784C106.1 7.20455 105.984 6.72159 105.984 6.17898C105.981 5.59375 106.116 5.07244 106.389 4.61506C106.662 4.15767 107.042 3.79972 107.531 3.54119C108.022 3.27983 108.593 3.15057 109.244 3.15341ZM109.257 4.60227C108.97 4.60227 108.714 4.67045 108.49 4.80682C108.268 4.94318 108.092 5.12642 107.961 5.35653C107.833 5.58665 107.771 5.84375 107.774 6.12784C107.774 6.41477 107.836 6.6733 107.961 6.90341C108.089 7.13068 108.262 7.3125 108.481 7.44886C108.703 7.58239 108.956 7.64915 109.24 7.64915C109.453 7.64915 109.65 7.60937 109.832 7.52983C110.014 7.45028 110.172 7.34091 110.305 7.2017C110.441 7.05966 110.548 6.89631 110.625 6.71165C110.701 6.52699 110.74 6.33097 110.74 6.12358C110.737 5.84801 110.672 5.59517 110.544 5.36506C110.416 5.13494 110.24 4.95028 110.015 4.81108C109.791 4.67187 109.538 4.60227 109.257 4.60227ZM116.803 12V5.45455H118.618V12H116.803ZM117.714 4.6108C117.445 4.6108 117.213 4.52131 117.02 4.34233C116.83 4.16051 116.734 3.94318 116.734 3.69034C116.734 3.44034 116.83 3.22585 117.02 3.04688C117.213 2.86506 117.445 2.77415 117.714 2.77415C117.984 2.77415 118.214 2.86506 118.405 3.04688C118.598 3.22585 118.695 3.44034 118.695 3.69034C118.695 3.94318 118.598 4.16051 118.405 4.34233C118.214 4.52131 117.984 4.6108 117.714 4.6108ZM125.518 7.32102L123.856 7.4233C123.828 7.28125 123.767 7.15341 123.673 7.03977C123.579 6.9233 123.456 6.83097 123.302 6.76278C123.152 6.69176 122.971 6.65625 122.761 6.65625C122.48 6.65625 122.243 6.71591 122.049 6.83523C121.856 6.9517 121.76 7.10795 121.76 7.30398C121.76 7.46023 121.822 7.59233 121.947 7.70028C122.072 7.80824 122.287 7.89489 122.591 7.96023L123.775 8.19886C124.412 8.32955 124.886 8.53977 125.199 8.82955C125.511 9.11932 125.667 9.5 125.667 9.97159C125.667 10.4006 125.541 10.777 125.288 11.1009C125.038 11.4247 124.694 11.6776 124.257 11.8594C123.822 12.0384 123.321 12.1278 122.752 12.1278C121.886 12.1278 121.196 11.9474 120.681 11.5866C120.17 11.223 119.87 10.7287 119.782 10.1037L121.568 10.0099C121.622 10.2741 121.752 10.4759 121.96 10.6151C122.167 10.7514 122.433 10.8196 122.757 10.8196C123.075 10.8196 123.331 10.7585 123.524 10.6364C123.72 10.5114 123.819 10.3509 123.822 10.1548C123.819 9.99006 123.75 9.85511 123.613 9.75C123.477 9.64205 123.267 9.55966 122.983 9.50284L121.849 9.27699C121.21 9.14915 120.734 8.92756 120.422 8.61222C120.112 8.29687 119.957 7.89489 119.957 7.40625C119.957 6.9858 120.071 6.62358 120.298 6.3196C120.528 6.01562 120.85 5.78125 121.265 5.61648C121.683 5.4517 122.172 5.36932 122.731 5.36932C123.558 5.36932 124.208 5.54403 124.683 5.89347C125.16 6.2429 125.439 6.71875 125.518 7.32102ZM121.913 2.7358L122.77 3.77557L123.626 2.7358H125.173V2.79545L123.443 4.67045H122.092L120.366 2.79545V2.7358H121.913ZM132.758 12.1193C132.156 12.1193 131.619 12.0085 131.147 11.7869C130.679 11.5653 130.306 11.2599 130.031 10.8707C129.755 10.4815 129.612 10.0355 129.6 9.53267H131.39C131.41 9.87074 131.552 10.1449 131.816 10.3551C132.081 10.5653 132.395 10.6705 132.758 10.6705C133.048 10.6705 133.304 10.6065 133.525 10.4787C133.75 10.348 133.924 10.1676 134.049 9.9375C134.177 9.70455 134.241 9.4375 134.241 9.13636C134.241 8.82955 134.176 8.55966 134.045 8.3267C133.917 8.09375 133.74 7.91193 133.512 7.78125C133.285 7.65057 133.025 7.58381 132.733 7.58097C132.477 7.58097 132.228 7.63352 131.987 7.73864C131.748 7.84375 131.562 7.98722 131.429 8.16903L129.788 7.875L130.201 3.27273H135.537V4.78125H131.723L131.497 6.96733H131.548C131.701 6.75142 131.933 6.57244 132.243 6.4304C132.552 6.28835 132.899 6.21733 133.282 6.21733C133.808 6.21733 134.277 6.34091 134.689 6.58807C135.1 6.83523 135.426 7.17472 135.664 7.60653C135.903 8.03551 136.021 8.52983 136.018 9.08949C136.021 9.67756 135.885 10.2003 135.609 10.6577C135.336 11.1122 134.954 11.4702 134.463 11.7315C133.974 11.9901 133.406 12.1193 132.758 12.1193Z" fill="#242424" fill-opacity="0.9"/>
<path d="M12.8854 6.87758C13.2063 6.65361 13.0479 6.14955 12.6565 6.14955H9.2441C9.07157 6.14955 8.91848 6.03892 8.86432 5.87511L7.80849 2.68154C7.68752 2.31562 7.16991 2.31562 7.04893 2.68154L5.9931 5.87511C5.93895 6.03892 5.78585 6.14955 5.61332 6.14955H2.2002C1.80888 6.14955 1.65036 6.65346 1.9712 6.8775L4.74981 8.81778C4.89616 8.91997 4.95708 9.10675 4.89915 9.27557L3.81714 12.4284C3.69089 12.7963 4.1108 13.1097 4.42758 12.8841L7.19662 10.9113C7.33552 10.8124 7.5219 10.8124 7.66081 10.9113L10.4289 12.8834C10.7457 13.1091 11.1657 12.7955 11.0392 12.4275L9.95562 9.27578C9.89755 9.10687 9.95851 8.91992 10.105 8.8177L12.8854 6.87758Z" fill="#FAC12F"/>
<path d="M31.171 6.87758C31.492 6.65361 31.3335 6.14955 30.9421 6.14955H27.5297C27.3572 6.14955 27.2041 6.03892 27.15 5.87511L26.0941 2.68154C25.9732 2.31562 25.4555 2.31562 25.3346 2.68154L24.2787 5.87511C24.2246 6.03892 24.0715 6.14955 23.899 6.14955H20.4858C20.0945 6.14955 19.936 6.65346 20.2568 6.8775L23.0355 8.81778C23.1818 8.91997 23.2427 9.10675 23.1848 9.27557L22.1028 12.4284C21.9765 12.7963 22.3964 13.1097 22.7132 12.8841L25.4823 10.9113C25.6212 10.8124 25.8075 10.8124 25.9464 10.9113L28.7145 12.8834C29.0314 13.1091 29.4514 12.7955 29.3249 12.4275L28.2413 9.27578C28.1832 9.10687 28.2442 8.91992 28.3906 8.8177L31.171 6.87758Z" fill="#FAC12F"/>
<path d="M49.4567 6.87758C49.7776 6.65361 49.6192 6.14955 49.2278 6.14955H45.8154C45.6429 6.14955 45.4898 6.03892 45.4356 5.87511L44.3798 2.68154C44.2588 2.31562 43.7412 2.31562 43.6202 2.68154L42.5644 5.87511C42.5102 6.03892 42.3571 6.14955 42.1846 6.14955H38.7715C38.3802 6.14955 38.2216 6.65346 38.5425 6.8775L41.3211 8.81778C41.4674 8.91997 41.5284 9.10675 41.4704 9.27557L40.3884 12.4284C40.2622 12.7963 40.6821 13.1097 40.9989 12.8841L43.7679 10.9113C43.9068 10.8124 44.0932 10.8124 44.2321 10.9113L47.0002 12.8834C47.317 13.1091 47.737 12.7955 47.6105 12.4275L46.5269 9.27578C46.4688 9.10687 46.5298 8.91992 46.6763 8.8177L49.4567 6.87758Z" fill="#FAC12F"/>
<path d="M67.7423 6.87758C68.0633 6.65361 67.9048 6.14955 67.5134 6.14955H64.101C63.9285 6.14955 63.7754 6.03892 63.7213 5.87511L62.6654 2.68154C62.5444 2.31562 62.0268 2.31562 61.9059 2.68154L60.85 5.87511C60.7959 6.03892 60.6428 6.14955 60.4703 6.14955H57.0571C56.6658 6.14955 56.5073 6.65346 56.8281 6.8775L59.6067 8.81778C59.7531 8.91997 59.814 9.10675 59.7561 9.27557L58.6741 12.4284C58.5478 12.7963 58.9677 13.1097 59.2845 12.8841L62.0535 10.9113C62.1925 10.8124 62.3788 10.8124 62.5177 10.9113L65.2858 12.8834C65.6027 13.1091 66.0227 12.7955 65.8962 12.4275L64.8126 9.27578C64.7545 9.10687 64.8154 8.91992 64.9619 8.8177L67.7423 6.87758Z" fill="#FAC12F"/>
<path d="M86.0284 6.87758C86.3494 6.65361 86.1909 6.14955 85.7995 6.14955H82.3872C82.2146 6.14955 82.0615 6.03892 82.0074 5.87511L80.9516 2.68154C80.8306 2.31562 80.313 2.31562 80.192 2.68154L79.1362 5.87511C79.082 6.03892 78.9289 6.14955 78.7564 6.14955H75.3433C74.952 6.14955 74.7934 6.65346 75.1143 6.8775L77.8929 8.81778C78.0392 8.91997 78.1002 9.10675 78.0422 9.27557L76.9602 12.4284C76.834 12.7963 77.2539 13.1097 77.5706 12.8841L80.3397 10.9113C80.4786 10.8124 80.665 10.8124 80.8039 10.9113L83.5719 12.8834C83.8888 13.1091 84.3088 12.7955 84.1823 12.4275L83.0987 9.27578C83.0406 9.10687 83.1016 8.91992 83.2481 8.8177L86.0284 6.87758Z" fill="#FAC12F"/>
<path d="M2.25781 33H4.36328V29.5684H6.18164L8.06836 33H10.3105L8.21191 29.2881L8.38965 29.1924C8.5127 29.1377 8.65625 29.0352 8.83398 28.8848C9.00488 28.7344 9.17578 28.5566 9.33984 28.3447C9.50391 28.1396 9.64746 27.8594 9.77051 27.5176C9.89355 27.1758 9.95508 26.8135 9.95508 26.417C9.95508 25.5146 9.64062 24.7559 9.00488 24.1338C8.36914 23.5117 7.5625 23.1973 6.5918 23.1973H2.25098L2.25781 33ZM7.85645 26.417C7.85645 26.7725 7.7334 27.0732 7.48047 27.3193C7.22754 27.5654 6.90625 27.6816 6.52344 27.6816H4.35645V25.0908H6.52344C6.90625 25.0908 7.22754 25.2207 7.48047 25.4668C7.7334 25.7197 7.85645 26.0342 7.85645 26.417ZM18.2881 30.1973L18.3564 29.4316C18.3564 28.4541 18.0283 27.6406 17.3789 26.9844C16.7227 26.3281 15.9092 26 14.9316 26C13.9473 26 13.1064 26.3555 12.4092 27.0527C11.7051 27.75 11.3564 28.5908 11.3564 29.5684C11.3564 30.5527 11.7119 31.3936 12.4229 32.0908C13.1338 32.7881 13.9883 33.1367 15 33.1367C15.3555 33.1367 15.6973 33.0957 16.0322 33.0137C16.3672 32.9316 16.6406 32.8428 16.8525 32.7334C17.0576 32.624 17.2559 32.501 17.4473 32.3643C17.6318 32.2275 17.7549 32.1318 17.8096 32.0771L17.9395 31.9473L16.9619 30.6895L16.7637 30.9014C16.6406 31.0449 16.4219 31.1885 16.1211 31.3252C15.8203 31.4619 15.4922 31.5303 15.1367 31.5303C14.6445 31.5303 14.2344 31.4072 13.9131 31.1475C13.585 30.8877 13.3867 30.5732 13.3184 30.1973H18.2881ZM14.9316 27.6133C15.3281 27.6133 15.6699 27.7363 15.9434 27.9688C16.2168 28.208 16.3945 28.5088 16.4697 28.8711H13.3184C13.4277 28.502 13.626 28.1943 13.9062 27.9619C14.1865 27.7295 14.5283 27.6133 14.9316 27.6133ZM21.7266 26.1367H19.833V33H21.7266V26.1367ZM21.8633 24.1816C21.8633 23.8672 21.7607 23.6074 21.5625 23.416C21.3574 23.2246 21.084 23.1289 20.7422 23.1289C20.4277 23.1289 20.1748 23.2246 19.9834 23.416C19.792 23.6074 19.6963 23.8672 19.6963 24.1816C19.6963 24.4961 19.7852 24.749 19.9766 24.9404C20.168 25.1318 20.4209 25.2275 20.7422 25.2275C21.084 25.2275 21.3574 25.1318 21.5625 24.9404C21.7607 24.749 21.8633 24.4961 21.8633 24.1816ZM24.4609 25.3711C24.4609 25.6445 24.3857 25.8633 24.2354 26.0273C24.085 26.1982 23.9004 26.2803 23.6885 26.2803H23.0596V27.9619H24.249V30.7578C24.249 32.3438 24.9668 33.1367 26.416 33.1367C26.8809 33.1436 27.3047 33.0752 27.6807 32.9316V31.3184L27.5986 31.3457C27.5371 31.373 27.4482 31.4004 27.332 31.4277C27.2158 31.4551 27.0996 31.4619 26.9766 31.4619C26.7305 31.4619 26.5322 31.3867 26.375 31.2363C26.2178 31.0859 26.1426 30.9082 26.1426 30.6895V27.9619H27.5371V26.2803H26.1426V24.1133H24.4609V25.3711ZM31.2559 26.1367H29.3623V33H31.2559V26.1367ZM31.3926 24.1816C31.3926 23.8672 31.29 23.6074 31.0918 23.416C30.8867 23.2246 30.6133 23.1289 30.2715 23.1289C29.957 23.1289 29.7041 23.2246 29.5127 23.416C29.3213 23.6074 29.2256 23.8672 29.2256 24.1816C29.2256 24.4961 29.3145 24.749 29.5059 24.9404C29.6973 25.1318 29.9502 25.2275 30.2715 25.2275C30.6133 25.2275 30.8867 25.1318 31.0918 24.9404C31.29 24.749 31.3926 24.4961 31.3926 24.1816ZM35.0361 26.1367H33.1494V33H35.0361V29.4316C35.0361 28.9189 35.1592 28.5225 35.4121 28.2422C35.665 27.9619 36.0068 27.8184 36.4375 27.8184C36.8271 27.8184 37.1484 27.9482 37.3945 28.208C37.6406 28.4678 37.7637 28.8027 37.7637 29.2197V33H39.6504V29.0078C39.6504 28.0918 39.4043 27.3604 38.9121 26.8135C38.4199 26.2734 37.7773 26 36.9912 26C36.6221 26 36.2666 26.0957 35.9248 26.2734C35.583 26.458 35.3643 26.6016 35.2617 26.7109C35.166 26.8203 35.084 26.9092 35.0293 26.9844L35.0361 26.1367ZM46.165 32.4395C46.165 33 46.001 33.4443 45.6729 33.7725C45.3447 34.1006 44.9072 34.2578 44.3467 34.2578C43.9707 34.2578 43.6221 34.1758 43.2939 34.0117C42.9658 33.8477 42.7539 33.7109 42.6582 33.6084C42.5625 33.499 42.4941 33.417 42.4463 33.3555L41.2568 34.4766L41.3867 34.6338C41.4619 34.7295 41.585 34.8525 41.7627 35.0029C41.9404 35.1465 42.1523 35.29 42.3848 35.4268C42.624 35.5635 42.9248 35.6865 43.2871 35.7891C43.6426 35.8916 44.0186 35.9463 44.415 35.9463C45.4541 35.9463 46.3223 35.6045 47.0127 34.9346C47.7031 34.2646 48.0518 33.4307 48.0518 32.4463V26.1436H46.165V26.9844L45.9531 26.7314C45.8164 26.5742 45.5771 26.417 45.2354 26.2529C44.8936 26.0889 44.5244 26.0068 44.1348 26.0068C43.3486 26.0068 42.6377 26.3418 42.002 27.0254C41.3662 27.709 41.0518 28.5088 41.0518 29.4385C41.0518 30.3613 41.3662 31.1611 42.002 31.8447C42.6377 32.5283 43.3486 32.8701 44.1348 32.8701C44.3809 32.8701 44.627 32.8291 44.8594 32.7607C45.0918 32.6924 45.2832 32.6104 45.4268 32.5215C45.5703 32.4326 45.707 32.3301 45.8301 32.2207C45.9531 32.1113 46.0352 32.0293 46.0762 31.9883C46.1172 31.9473 46.1445 31.9131 46.165 31.8857V32.4395ZM43.0137 29.4316C43.0137 28.9463 43.1572 28.543 43.458 28.2285C43.7588 27.9141 44.1211 27.7568 44.5518 27.7568C44.9824 27.7568 45.3584 27.9141 45.6797 28.2422C46.001 28.5703 46.165 28.9668 46.165 29.4316C46.165 29.8965 46.001 30.2998 45.6797 30.6279C45.3584 30.9561 44.9824 31.1201 44.5518 31.1201C44.1211 31.1201 43.7588 30.9561 43.458 30.6416C43.1572 30.3203 43.0137 29.917 43.0137 29.4316ZM53.6504 33H55.5371V28.7275C55.5371 27.9482 55.2637 27.2988 54.7168 26.7793C54.1699 26.2598 53.459 26 52.5977 26C52.2627 26 51.9346 26.0547 51.6133 26.1504C51.2988 26.2461 51.0391 26.3555 50.8408 26.4717C50.6494 26.5879 50.4648 26.7178 50.3008 26.8682C50.1367 27.0186 50.0273 27.1279 49.9795 27.1895C49.9316 27.251 49.8906 27.2988 49.8633 27.333L50.9092 28.3789L51.0664 28.2148C51.1758 28.0918 51.3535 27.9756 51.6064 27.8594C51.8662 27.7432 52.1465 27.6816 52.4541 27.6816C52.8301 27.6816 53.124 27.7773 53.3291 27.9551C53.541 28.1396 53.6436 28.3721 53.6436 28.6592L51.4697 29.0488C50.8408 29.165 50.3418 29.4111 49.9795 29.7803C49.624 30.1562 49.4395 30.6211 49.4395 31.1816C49.4395 31.7285 49.6582 32.1865 50.082 32.5693C50.5127 32.9521 51.0664 33.1367 51.75 33.1367C52.1055 33.1367 52.4473 33.0615 52.7754 32.9111C53.1035 32.7607 53.3223 32.6377 53.418 32.542C53.5137 32.4463 53.5889 32.3711 53.6436 32.3027L53.6504 33ZM52.2422 31.5986C51.6406 31.5986 51.333 31.3662 51.333 30.9014C51.333 30.4707 51.5928 30.2109 52.1055 30.1289L53.6436 29.8486V30.0605C53.6436 30.5459 53.5205 30.9219 53.2676 31.1953C53.0146 31.4688 52.6729 31.5986 52.2422 31.5986ZM62.1201 27.0527L61.8809 26.7861C61.7236 26.6221 61.4434 26.4443 61.0469 26.2666C60.6504 26.0889 60.2129 26 59.7412 26C58.9893 26 58.3604 26.2256 57.8477 26.6699C57.335 27.1211 57.082 27.6201 57.082 28.167C57.082 28.5908 57.1846 28.9463 57.4033 29.2197C57.6152 29.5 57.875 29.7051 58.1826 29.835C58.4902 29.9717 58.8047 30.0811 59.1191 30.1768C59.4336 30.2725 59.6934 30.3818 59.9121 30.5049C60.124 30.6279 60.2334 30.7852 60.2334 30.9697C60.2334 31.1611 60.1514 31.3115 60.001 31.4277C59.8506 31.5439 59.625 31.5986 59.3242 31.5986C59.0508 31.5986 58.7842 31.5303 58.5312 31.3867C58.2715 31.2432 58.1074 31.127 58.0254 31.0449C57.9434 30.9629 57.8887 30.8877 57.8545 30.833L56.8018 31.8789L56.8975 32.0225C56.9658 32.1045 57.0752 32.207 57.2256 32.3301C57.376 32.4531 57.5605 32.5693 57.7656 32.6924C57.9707 32.8154 58.2373 32.9248 58.5654 33.0068C58.8936 33.0957 59.2354 33.1367 59.6045 33.1367C60.4521 33.1367 61.1152 32.9316 61.6006 32.5146C62.0859 32.1045 62.332 31.585 62.332 30.9697C62.332 30.5459 62.2227 30.1836 62.0107 29.8965C61.792 29.6094 61.5322 29.3975 61.2178 29.2676C60.9033 29.1377 60.5889 29.0283 60.2812 28.9326C59.9736 28.8369 59.7139 28.7344 59.502 28.6113C59.2832 28.4951 59.1807 28.3447 59.1807 28.167C59.1807 28.0234 59.2559 27.8936 59.4062 27.7842C59.5566 27.6748 59.7617 27.6133 60.0215 27.6133C60.2266 27.6133 60.4248 27.668 60.623 27.7705C60.8145 27.873 60.9443 27.9551 61.0059 28.0166C61.0674 28.085 61.1152 28.1328 61.1426 28.167L62.1201 27.0527Z" fill="#242424" fill-opacity="0.9"/>
<path d="M91.4739 32.2H93.7243V24.3237H96.8359V22.4933H88.3623V24.3237H91.4739V32.2ZM99.8008 25.7243V24.7397H97.731V32.2H99.898V28.6779C99.898 27.2496 100.69 26.5979 101.884 26.5979C102.051 26.5979 102.19 26.6117 102.371 26.6256V24.6288C101.218 24.6288 100.329 25.0032 99.8008 25.7243ZM109.075 24.7397V28.4283C109.075 29.8011 108.353 30.4389 107.353 30.4389C106.394 30.4389 105.839 29.8843 105.839 28.6363V24.7397H103.672V28.9552C103.672 31.2571 104.991 32.3109 106.867 32.3109C107.784 32.3109 108.617 31.9643 109.187 31.3125V32.2H111.242V24.7397H109.075ZM115.764 32.3109C118.001 32.3109 119.293 31.3264 119.293 29.9397C119.293 27 114.778 28.2341 114.778 26.9584C114.778 26.5701 115.195 26.2651 116.167 26.2651C116.848 26.2651 117.584 26.4037 118.32 26.8197L119.043 25.2805C118.334 24.8645 117.195 24.6288 116.167 24.6288C113.986 24.6288 112.708 25.6272 112.708 27.0416C112.708 30.0229 117.223 28.7749 117.223 29.9952C117.223 30.4112 116.848 30.6747 115.848 30.6747C114.931 30.6747 113.917 30.3835 113.25 29.9536L112.528 31.5067C113.222 31.9643 114.5 32.3109 115.764 32.3109ZM124.866 30.3141C124.63 30.4944 124.311 30.5915 123.991 30.5915C123.408 30.5915 123.061 30.2448 123.061 29.6069V26.5701H124.922V24.9061H123.061V23.0896H120.894V24.9061H119.741V26.5701H120.894V29.6347C120.894 31.4096 121.922 32.3109 123.686 32.3109C124.352 32.3109 125.005 32.1584 125.45 31.8395L124.866 30.3141ZM131.084 24.6288C130.153 24.6288 129.389 24.92 128.833 25.5301V21.9109H126.666V32.2H128.736V31.3403C129.278 31.992 130.084 32.3109 131.084 32.3109C133.181 32.3109 134.807 30.8133 134.807 28.4699C134.807 26.1264 133.181 24.6288 131.084 24.6288ZM130.709 30.536C129.625 30.536 128.806 29.7595 128.806 28.4699C128.806 27.1803 129.625 26.4037 130.709 26.4037C131.792 26.4037 132.612 27.1803 132.612 28.4699C132.612 29.7595 131.792 30.536 130.709 30.536ZM139.813 32.3109C142.189 32.3109 143.911 30.7163 143.911 28.4699C143.911 26.2235 142.189 24.6288 139.813 24.6288C137.438 24.6288 135.701 26.2235 135.701 28.4699C135.701 30.7163 137.438 32.3109 139.813 32.3109ZM139.813 30.536C138.73 30.536 137.896 29.7595 137.896 28.4699C137.896 27.1803 138.73 26.4037 139.813 26.4037C140.897 26.4037 141.716 27.1803 141.716 28.4699C141.716 29.7595 140.897 30.536 139.813 30.536ZM152.339 32.2L149.449 28.3867L152.228 24.7397H149.922L148.296 26.9168L146.713 24.7397H144.282L147.06 28.4421L144.185 32.2H146.546L148.241 29.912L149.88 32.2H152.339Z" fill="#242424"/>
<path d="M67.3886 28.4371C66.8705 27.5483 66.8705 26.4517 67.3886 25.5628L70.6778 19.9203C71.1932 19.0363 72.1428 18.4921 73.1703 18.4921L79.7696 18.4921C80.797 18.4921 81.7467 19.0363 82.262 19.9203L85.5512 25.5628C86.0694 26.4517 86.0694 27.5483 85.5512 28.4371L82.262 34.0797C81.7467 34.9637 80.797 35.5079 79.7696 35.5079H73.1703C72.1428 35.5079 71.1932 34.9637 70.6778 34.0797L67.3886 28.4371Z" fill="url(#paint0_linear_580_34)"/>
<path d="M76.4701 20.9499L78.3747 24.7398L82.5311 25.3562L79.4959 28.269L80.2634 32.4856L76.4701 30.4736L72.7242 32.4856L73.4917 28.269L70.4092 25.3562L74.6129 24.7398L76.4701 20.9499Z" fill="white"/>
<defs>
<linearGradient id="paint0_linear_580_34" x1="67" y1="27" x2="86" y2="27" gradientUnits="userSpaceOnUse">
<stop stop-color="#21FE98"/>
<stop offset="1" stop-color="#129BAA"/>
</linearGradient>
</defs>
</svg>
