<svg width="74" height="21" viewBox="0 0 74 21" fill="none" xmlns="http://www.w3.org/2000/svg">
<path d="M3.14483 11.6608C2.72646 10.9429 2.72646 10.0571 3.14483 9.33924L5.8008 4.78178C6.21692 4.06775 6.98376 3.62822 7.81338 3.62822L13.1421 3.62822C13.9717 3.62822 14.7386 4.06775 15.1547 4.78178L17.8106 9.33924C18.229 10.0571 18.229 10.9429 17.8106 11.6608L15.1547 16.2183C14.7386 16.9323 13.9717 17.3718 13.1421 17.3718H7.81338C6.98376 17.3718 6.21692 16.9323 5.8008 16.2183L3.14483 11.6608Z" fill="url(#paint0_linear_622_66)"/>
<path d="M10.478 5.6134L12.0159 8.67449L15.3721 9.1723L12.9213 11.525L13.541 14.9307L10.478 13.3056L7.45333 14.9307L8.07303 11.525L5.58398 9.1723L8.97837 8.67449L10.478 5.6134Z" fill="white"/>
<path d="M22.5926 14.7H24.4097V8.33837H26.9223V6.85997H20.0801V8.33837H22.5926V14.7ZM29.3163 9.46957V8.67437H27.645V14.7H29.3948V11.8552C29.3948 10.7016 30.0342 10.1752 30.9988 10.1752C31.1334 10.1752 31.2456 10.1864 31.3914 10.1976V8.58477C30.4604 8.58477 29.7426 8.88717 29.3163 9.46957ZM36.8053 8.67437V11.6536C36.8053 12.7624 36.2221 13.2776 35.4145 13.2776C34.6405 13.2776 34.1918 12.8296 34.1918 11.8216V8.67437H32.442V12.0792C32.442 13.9384 33.5076 14.7896 35.0219 14.7896C35.7622 14.7896 36.4352 14.5096 36.8951 13.9832V14.7H38.5551V8.67437H36.8053ZM42.2064 14.7896C44.0123 14.7896 45.0554 13.9944 45.0554 12.8744C45.0554 10.5 41.41 11.4968 41.41 10.4664C41.41 10.1528 41.7465 9.90637 42.5317 9.90637C43.0813 9.90637 43.6758 10.0184 44.2703 10.3544L44.8535 9.11117C44.2815 8.77517 43.3617 8.58477 42.5317 8.58477C40.7707 8.58477 39.7387 9.39117 39.7387 10.5336C39.7387 12.9416 43.3842 11.9336 43.3842 12.9192C43.3842 13.2552 43.0813 13.468 42.2737 13.468C41.5334 13.468 40.7146 13.2328 40.1762 12.8856L39.5929 14.14C40.1537 14.5096 41.1857 14.7896 42.2064 14.7896ZM49.5561 13.1768C49.3655 13.3224 49.1075 13.4008 48.8495 13.4008C48.3784 13.4008 48.098 13.1208 48.098 12.6056V10.1528H49.601V8.80877H48.098V7.34157H46.3482V8.80877H45.4172V10.1528H46.3482V12.628C46.3482 14.0616 47.1782 14.7896 48.6027 14.7896C49.1411 14.7896 49.6683 14.6664 50.0272 14.4088L49.5561 13.1768ZM54.5765 8.58477C53.825 8.58477 53.2081 8.81997 52.7594 9.31277V6.38957H51.0096V14.7H52.6809V14.0056C53.1184 14.532 53.7689 14.7896 54.5765 14.7896C56.2703 14.7896 57.5826 13.58 57.5826 11.6872C57.5826 9.79437 56.2703 8.58477 54.5765 8.58477ZM54.2737 13.356C53.3988 13.356 52.737 12.7288 52.737 11.6872C52.737 10.6456 53.3988 10.0184 54.2737 10.0184C55.1486 10.0184 55.8104 10.6456 55.8104 11.6872C55.8104 12.7288 55.1486 13.356 54.2737 13.356ZM61.6253 14.7896C63.5433 14.7896 64.9342 13.5016 64.9342 11.6872C64.9342 9.87277 63.5433 8.58477 61.6253 8.58477C59.7072 8.58477 58.3051 9.87277 58.3051 11.6872C58.3051 13.5016 59.7072 14.7896 61.6253 14.7896ZM61.6253 13.356C60.7504 13.356 60.0774 12.7288 60.0774 11.6872C60.0774 10.6456 60.7504 10.0184 61.6253 10.0184C62.5002 10.0184 63.162 10.6456 63.162 11.6872C63.162 12.7288 62.5002 13.356 61.6253 13.356ZM71.7392 14.7L69.4062 11.62L71.6495 8.67437H69.7875L68.4752 10.4328L67.1965 8.67437H65.2336L67.4769 11.6648L65.155 14.7H67.0619L68.4303 12.852L69.7539 14.7H71.7392Z" fill="#E8E8E9"/>
<defs>
<linearGradient id="paint0_linear_622_66" x1="2.83105" y1="10.5" x2="18.173" y2="10.5" gradientUnits="userSpaceOnUse">
<stop stop-color="#21FE98"/>
<stop offset="1" stop-color="#129BAA"/>
</linearGradient>
</defs>
</svg>
