<svg width="128" height="37" viewBox="0 0 128 37" fill="none" xmlns="http://www.w3.org/2000/svg">
<path d="M5.37196 20.5452C4.63838 19.2803 4.63838 17.7197 5.37196 16.4548L10.029 8.42504C10.7586 7.167 12.1032 6.39258 13.5579 6.39258L22.9014 6.39258C24.3561 6.39258 25.7007 7.167 26.4303 8.42504L31.0874 16.4548C31.821 17.7197 31.821 19.2803 31.0874 20.5452L26.4303 28.575C25.7007 29.833 24.3561 30.6074 22.9014 30.6074H13.5579C12.1032 30.6074 10.7586 29.833 10.029 28.575L5.37196 20.5452Z" fill="url(#paint0_linear_56_285)"/>
<path d="M18.2298 9.89014L20.9264 15.2835L26.8111 16.1606L22.5138 20.3058L23.6004 26.3063L18.2298 23.443L12.9262 26.3063L14.0128 20.3058L9.64844 16.1606L15.6002 15.2835L18.2298 9.89014Z" fill="white"/>
<path d="M39.4729 25.8999H42.6591V14.6914H47.0646V12.0866H35.0674V14.6914H39.4729V25.8999ZM51.2624 16.6845V15.2834H48.332V25.8999H51.4001V20.8877C51.4001 18.8551 52.5212 17.9277 54.2126 17.9277C54.4486 17.9277 54.6453 17.9474 54.9009 17.9671V15.1255C53.2685 15.1255 52.0098 15.6583 51.2624 16.6845ZM64.3939 15.2834V20.5325C64.3939 22.4861 63.3711 23.3938 61.9551 23.3938C60.598 23.3938 59.8113 22.6045 59.8113 20.8285V15.2834H56.7431V21.2823C56.7431 24.5581 58.6116 26.0578 61.2667 26.0578C62.5648 26.0578 63.7448 25.5645 64.5512 24.637V25.8999H67.462V15.2834H64.3939ZM73.8642 26.0578C77.0307 26.0578 78.8598 24.6567 78.8598 22.6834C78.8598 18.4999 72.4678 20.2562 72.4678 18.4407C72.4678 17.8882 73.0578 17.4541 74.4346 17.4541C75.3983 17.4541 76.4407 17.6514 77.4831 18.2434L78.5058 16.053C77.5027 15.461 75.89 15.1255 74.4346 15.1255C71.3468 15.1255 69.5373 16.5463 69.5373 18.5591C69.5373 22.8018 75.9293 21.0258 75.9293 22.7623C75.9293 23.3543 75.3983 23.7293 73.9822 23.7293C72.6842 23.7293 71.2484 23.3149 70.3044 22.7031L69.2817 24.9133C70.265 25.5645 72.0745 26.0578 73.8642 26.0578ZM86.7514 23.2162C86.4171 23.4727 85.9647 23.6109 85.5124 23.6109C84.6863 23.6109 84.1946 23.1175 84.1946 22.2098V17.8882H86.8301V15.5202H84.1946V12.9351H81.1265V15.5202H79.4941V17.8882H81.1265V22.2493C81.1265 24.7751 82.5819 26.0578 85.0797 26.0578C86.0237 26.0578 86.9481 25.8407 87.5775 25.3869L86.7514 23.2162ZM95.5543 15.1255C94.2366 15.1255 93.1549 15.5399 92.3682 16.4082V11.2578H89.3V25.8999H92.2305V24.6765C92.9975 25.6039 94.1383 26.0578 95.5543 26.0578C98.5241 26.0578 100.825 23.9266 100.825 20.5917C100.825 17.2567 98.5241 15.1255 95.5543 15.1255ZM95.0233 23.5319C93.4892 23.5319 92.3288 22.4269 92.3288 20.5917C92.3288 18.7565 93.4892 17.6514 95.0233 17.6514C96.5574 17.6514 97.7178 18.7565 97.7178 20.5917C97.7178 22.4269 96.5574 23.5319 95.0233 23.5319ZM107.914 26.0578C111.277 26.0578 113.716 23.7885 113.716 20.5917C113.716 17.3949 111.277 15.1255 107.914 15.1255C104.551 15.1255 102.092 17.3949 102.092 20.5917C102.092 23.7885 104.551 26.0578 107.914 26.0578ZM107.914 23.5319C106.38 23.5319 105.2 22.4269 105.2 20.5917C105.2 18.7565 106.38 17.6514 107.914 17.6514C109.448 17.6514 110.608 18.7565 110.608 20.5917C110.608 22.4269 109.448 23.5319 107.914 23.5319ZM125.648 25.8999L121.557 20.4733L125.49 15.2834H122.226L119.925 18.3815L117.682 15.2834H114.241L118.174 20.5522L114.103 25.8999H117.446L119.846 22.6439L122.167 25.8999H125.648Z" fill="black"/>
<defs>
<linearGradient id="paint0_linear_56_285" x1="4.82178" y1="18.5" x2="31.7228" y2="18.5" gradientUnits="userSpaceOnUse">
<stop stop-color="#21FE98"/>
<stop offset="1" stop-color="#129BAA"/>
</linearGradient>
</defs>
</svg>
