<svg width="28" height="28" viewBox="0 0 28 28" fill="none" xmlns="http://www.w3.org/2000/svg">
<path d="M7.22278 17.8053L11.2134 12.62L15.7654 16.1933L19.6708 11.1533" stroke="black" stroke-width="1.5" stroke-linecap="round" stroke-linejoin="round"/>
<path fill-rule="evenodd" clip-rule="evenodd" d="M24.2228 1.1333C25.6388 1.1333 26.7854 2.27997 26.7854 3.69597C26.7854 5.11063 25.6388 6.25863 24.2228 6.25863C22.8068 6.25863 21.6601 5.11063 21.6601 3.69597C21.6601 2.27997 22.8068 1.1333 24.2228 1.1333Z" stroke="#FF3E3E" stroke-width="1.5" stroke-linecap="round" stroke-linejoin="round"/>
<path d="M25.674 10.3588C25.8513 11.5521 25.9327 12.8961 25.9327 14.4041C25.9327 23.6548 22.85 26.7375 13.5993 26.7375C4.34999 26.7375 1.26599 23.6548 1.26599 14.4041C1.26599 5.1548 4.34999 2.0708 13.5993 2.0708C15.0793 2.0708 16.4007 2.14947 17.5767 2.32013" stroke="black" stroke-width="1.5" stroke-linecap="round" stroke-linejoin="round"/>
</svg>
