<svg width="22" height="27" viewBox="0 0 22 27" fill="none" xmlns="http://www.w3.org/2000/svg">
<path fill-rule="evenodd" clip-rule="evenodd" d="M10.9797 17.4614C5.82288 17.4614 1.41907 18.2411 1.41907 21.3636C1.41907 24.4862 5.79494 25.2938 10.9797 25.2938C16.1365 25.2938 20.5391 24.5129 20.5391 21.3916C20.5391 18.2703 16.1645 17.4614 10.9797 17.4614Z" stroke="black" stroke-width="1.5" stroke-linecap="round" stroke-linejoin="round"/>
<path d="M7.00012 22C7.00012 22 8.50012 22.3 11.0001 22.3C13.5001 22.3 15.0001 22 15.0001 22" stroke="#FF3E3E" stroke-width="1.5" stroke-linecap="round" stroke-linejoin="round"/>
<path fill-rule="evenodd" clip-rule="evenodd" d="M10.9797 13.0077C14.3639 13.0077 17.1067 10.2636 17.1067 6.87943C17.1067 3.4953 14.3639 0.752441 10.9797 0.752441C7.5956 0.752441 4.85148 3.4953 4.85148 6.87943C4.84005 10.2521 7.56513 12.9962 10.9366 13.0077H10.9797Z" stroke="black" stroke-width="1.42857" stroke-linecap="round" stroke-linejoin="round"/>
</svg>
