<svg width="14" height="14" viewBox="0 0 14 14" fill="none" xmlns="http://www.w3.org/2000/svg">
<path fill-rule="evenodd" clip-rule="evenodd" d="M10.4573 0.583984C11.396 0.583984 12.299 0.961855 12.9633 1.63988C13.6283 2.31648 14 3.22908 14 4.18445V9.81685C14 11.806 12.411 13.4173 10.4573 13.4173H3.542C1.5883 13.4173 0 11.806 0 9.81685V4.18445C0 2.19528 1.5813 0.583984 3.542 0.583984H10.4573ZM11.5709 5.2462L11.6269 5.18916C11.7942 4.98241 11.7942 4.68296 11.6192 4.4762C11.5219 4.36997 11.3882 4.30509 11.2489 4.29083C11.1019 4.28299 10.9619 4.33361 10.8562 4.43342L7.6999 7.00009C7.2939 7.34303 6.7122 7.34303 6.2999 7.00009L3.1499 4.43342C2.9322 4.26944 2.6312 4.29083 2.4499 4.48333C2.2609 4.67583 2.2399 4.98241 2.4002 5.19629L2.4919 5.28898L5.6769 7.82C6.0689 8.1337 6.5442 8.30481 7.0419 8.30481C7.5382 8.30481 8.0219 8.1337 8.4132 7.82L11.5709 5.2462Z" fill="#FF3E3E"/>
</svg>
