<svg width="54" height="54" viewBox="0 0 54 54" fill="none" xmlns="http://www.w3.org/2000/svg">
<path d="M27 0.75C21.8083 0.75 16.7331 2.28954 12.4163 5.17392C8.0995 8.05831 4.73497 12.158 2.74817 16.9546C0.761374 21.7511 0.241536 27.0291 1.2544 32.1211C2.26726 37.2131 4.76733 41.8904 8.43846 45.5616C12.1096 49.2327 16.7869 51.7327 21.8789 52.7456C26.9709 53.7585 32.2489 53.2386 37.0455 51.2518C41.842 49.265 45.9417 45.9005 48.8261 41.5837C51.7105 37.2669 53.25 32.1918 53.25 27C53.25 20.0381 50.4844 13.3613 45.5616 8.43845C40.6387 3.51562 33.9619 0.75 27 0.75ZM27 49.5C22.5499 49.5 18.1998 48.1804 14.4997 45.7081C10.7996 43.2357 7.91569 39.7217 6.21272 35.6104C4.50975 31.499 4.06418 26.975 4.93234 22.6105C5.80051 18.2459 7.94343 14.2368 11.0901 11.0901C14.2368 7.94342 18.2459 5.8005 22.6105 4.93233C26.9751 4.06416 31.4991 4.50974 35.6104 6.21271C39.7217 7.91568 43.2357 10.7996 45.7081 14.4997C48.1804 18.1998 49.5 22.5499 49.5 27C49.5 32.9674 47.1295 38.6903 42.9099 42.9099C38.6903 47.1295 32.9674 49.5 27 49.5Z" fill="#25D366"/>
<path d="M22.0871 33.7313L15.9184 27.5438L13.2559 30.2062L19.4996 36.375C19.85 36.7226 20.2656 36.9975 20.7225 37.1841C21.1794 37.3708 21.6686 37.4654 22.1621 37.4625C23.1263 37.4438 24.0463 37.0543 24.7309 36.375L40.7434 20.3625L38.0809 17.7188L22.0871 33.7313Z" fill="#25D366"/>
</svg>
