<svg width="54" height="54" viewBox="0 0 54 54" fill="none" xmlns="http://www.w3.org/2000/svg">
<path fill-rule="evenodd" clip-rule="evenodd" d="M4.93701 22.625C4.93701 12.8565 12.856 4.9375 22.6245 4.9375C32.393 4.9375 40.312 12.8565 40.312 22.625C40.312 32.3935 32.393 40.3125 22.6245 40.3125C12.856 40.3125 4.93701 32.3935 4.93701 22.625ZM22.6245 0.9375C10.6468 0.9375 0.937012 10.6473 0.937012 22.625C0.937012 34.6027 10.6468 44.3125 22.6245 44.3125C27.8932 44.3125 32.7231 42.4337 36.4808 39.3096L49.648 52.4767C50.429 53.2578 51.6953 53.2578 52.4764 52.4767C53.2574 51.6957 53.2574 50.4294 52.4764 49.6483L39.3092 36.4811C42.4333 32.7235 44.312 27.8936 44.312 22.625C44.312 10.6473 34.6022 0.9375 22.6245 0.9375ZM22.6245 11.875C23.7291 11.875 24.6245 12.7704 24.6245 13.875V20.625H31.3745C32.4791 20.625 33.3745 21.5204 33.3745 22.625C33.3745 23.7296 32.4791 24.625 31.3745 24.625H24.6245V31.375C24.6245 32.4796 23.7291 33.375 22.6245 33.375C21.5199 33.375 20.6245 32.4796 20.6245 31.375V24.625H13.8745C12.7699 24.625 11.8745 23.7296 11.8745 22.625C11.8745 21.5204 12.7699 20.625 13.8745 20.625H20.6245V13.875C20.6245 12.7704 21.5199 11.875 22.6245 11.875Z" fill="white" fill-opacity="0.7"/>
</svg>
