<svg width="11" height="11" viewBox="0 0 11 11" fill="none" xmlns="http://www.w3.org/2000/svg">
<path d="M5.5 0C2.46263 0 0 2.46263 0 5.5C0 8.53738 2.46263 11 5.5 11C8.53738 11 11 8.53738 11 5.5C11 2.46263 8.53738 0 5.5 0ZM8.57404 4.44904L5.10904 7.91404C5.02288 8.00021 4.90646 8.04833 4.785 8.04833C4.66354 8.04833 4.54667 8.00021 4.46096 7.91404L2.87833 6.33142C2.69913 6.15221 2.69913 5.86254 2.87833 5.68333C3.05754 5.50413 3.34721 5.50413 3.52642 5.68333L4.785 6.94192L7.92596 3.80096C8.10517 3.62175 8.39483 3.62175 8.57404 3.80096C8.75325 3.98017 8.75325 4.26983 8.57404 4.44904Z" fill="#0BA5E8"/>
</svg>
