<svg width="26" height="27" viewBox="0 0 26 27" fill="none" xmlns="http://www.w3.org/2000/svg">
<circle cx="7.98018" cy="6.83714" r="2.95625" fill="#FF3E3E"/>
<circle cx="7.98018" cy="6.83714" r="3.95625" stroke="#FF3E3E" stroke-opacity="0.3" stroke-width="2"/>
<path fill-rule="evenodd" clip-rule="evenodd" d="M7.15757 5.91384C6.70789 6.30543 6.53026 7.00455 6.73306 7.58483C6.7749 7.70456 7.74804 9.41635 9.45955 12.3808L12.121 16.9906L12.0756 17.1599C12.0435 17.2798 12.0016 17.3459 11.9322 17.3859C11.8681 17.4229 11.3116 17.4739 10.3267 17.5329C9.49756 17.5825 8.72655 17.6487 8.6133 17.6799C8.03017 17.8405 7.60118 18.2878 7.4593 18.8831C7.38921 19.1773 7.38969 19.3709 7.4613 19.6696C7.5086 19.8667 7.7461 20.3211 7.8629 20.4379C7.92007 20.495 13.8265 21.8825 14.3808 21.969C15.1627 22.091 15.938 22.0218 16.783 21.7544C17.1279 21.6453 17.2066 21.6038 18.6905 20.7475C20.4204 19.7491 20.5121 19.6845 21.0298 19.0994C21.5253 18.5394 21.8686 17.9142 22.0862 17.176C22.2555 16.6011 22.3153 16.0714 22.2779 15.4763C22.2441 14.9377 22.1947 14.6592 22.0477 14.1775C21.9532 13.8678 21.8926 13.7559 20.4779 11.2812C19.198 9.04221 18.9859 8.6861 18.8482 8.5454C18.2034 7.88621 17.1092 7.94948 16.5391 8.67892L16.4018 8.85462L16.2297 8.68331C15.4943 7.95175 14.2258 8.16748 13.759 9.10351L13.6868 9.24833L13.4651 9.17088C12.7731 8.92911 12.0903 9.16014 11.6198 9.79526C11.5806 9.84815 11.5203 9.75068 10.5044 7.9911C9.60526 6.43368 9.40555 6.10571 9.27705 5.97541C8.71102 5.40141 7.77718 5.37429 7.15757 5.91384ZM8.1411 6.29986C8.28611 6.29197 8.42257 6.31614 8.53652 6.3699L8.71051 6.45203L10.2944 9.15885L11.8782 11.8657L12.0345 11.8982C12.2041 11.9336 12.3351 11.8815 12.4374 11.7382C12.5303 11.6081 12.506 11.4578 12.3479 11.184C12.1778 10.8895 12.132 10.7123 12.1689 10.4919C12.2415 10.0577 12.6834 9.75687 13.1033 9.85569C13.3409 9.91159 13.4538 10.0107 13.6862 10.3671C13.8992 10.6936 13.9057 10.7 14.0575 10.7317C14.2314 10.7679 14.3678 10.7093 14.466 10.5561C14.5353 10.4479 14.5252 10.3198 14.4288 10.0863C14.2455 9.64201 14.517 9.11586 14.978 9.02214C15.1594 8.98526 15.3674 9.01638 15.5336 9.10525C15.6691 9.17768 15.6976 9.21648 16.0903 9.86202L16.5042 10.5425L16.6605 10.575C16.8361 10.6116 16.9722 10.5535 17.0707 10.3998C17.14 10.2916 17.1299 10.1635 17.0336 9.93019C16.9059 9.62085 17.01 9.2236 17.2737 9.01361C17.5034 8.8307 17.8375 8.80075 18.1134 8.93832L18.2784 9.0206L19.7096 11.4799C21.2654 14.1534 21.2842 14.1903 21.4324 14.8543C21.7174 16.1316 21.3465 17.5846 20.4846 18.5673C20.0402 19.0739 19.9548 19.1336 18.3393 20.0663C17.2565 20.6915 16.7901 20.946 16.6153 21.0071C16.0206 21.2151 15.3409 21.3001 14.743 21.2413C14.5513 21.2224 13.0348 20.8928 11.3731 20.509L8.35175 19.811L8.26095 19.6246C8.14049 19.3773 8.14821 19.0905 8.28194 18.8418C8.3688 18.6804 8.41048 18.6402 8.6114 18.5242L8.84145 18.3914L10.4324 18.2939L12.0234 18.1965L12.2806 18.0458C12.4941 17.9207 12.5599 17.8628 12.667 17.7056C12.8151 17.4882 12.8878 17.2042 12.8636 16.9375L12.8469 16.7526L10.1276 12.0062C7.59278 7.58182 7.40829 7.25124 7.40825 7.13353C7.40812 6.88722 7.46501 6.71626 7.60007 6.55744C7.74669 6.38495 7.89767 6.31306 8.1411 6.29986Z" fill="white" fill-opacity="0.8"/>
<path d="M7.15753 5.91379L7.05907 5.80072C7.73657 5.21075 8.76048 5.23793 9.38386 5.87008C9.46231 5.94964 9.55286 6.0794 9.72986 6.37007C9.90933 6.66482 10.185 7.13777 10.6343 7.9161C11.143 8.79712 11.4105 9.25873 11.556 9.49398C11.5749 9.52465 11.5914 9.5507 11.6056 9.57279C12.1066 8.9908 12.8058 8.78166 13.5145 9.02927L13.6115 9.06315L13.6248 9.03657C14.1363 8.01077 15.5262 7.77188 16.3354 8.57697L16.3355 8.57698L16.3878 8.62902L16.421 8.58655C17.0464 7.78615 18.2467 7.71596 18.9555 8.4405C19.0392 8.52608 19.1357 8.66706 19.3636 9.04968C19.5947 9.43759 19.9685 10.0877 20.6082 11.2068C22.0159 13.6694 22.0903 13.803 22.1912 14.1337C22.3418 14.6274 22.3931 14.9174 22.4276 15.4669C22.4661 16.0796 22.4044 16.6268 22.2301 17.2184L22.0862 17.176L22.2301 17.2184C22.0065 17.9771 21.6526 18.6218 21.1421 19.1988C20.8808 19.4942 20.7193 19.6669 20.4011 19.8911C20.0903 20.1101 19.6276 20.3798 18.7654 20.8774C17.2885 21.7297 17.1927 21.7822 16.8283 21.8975C15.9638 22.1709 15.1651 22.2432 14.3577 22.1172L14.3808 21.969L14.3577 22.1172C14.0732 22.0728 12.4498 21.7023 10.9011 21.3385C10.1244 21.156 9.3629 20.9744 8.79187 20.8348C8.50646 20.765 8.26808 20.7056 8.099 20.6617C8.01462 20.6399 7.94652 20.6216 7.89815 20.6078C7.8742 20.6009 7.85348 20.5947 7.83748 20.5893C7.82972 20.5867 7.82089 20.5836 7.81251 20.5801C7.80843 20.5785 7.80228 20.5758 7.79548 20.5722L7.79515 20.5721C7.79111 20.5699 7.77372 20.5608 7.75686 20.544L7.15753 5.91379ZM7.15753 5.91379L7.05907 5.80072C6.56127 6.23422 6.36924 6.99848 6.59146 7.63432C6.60137 7.66268 6.62805 7.71463 6.6595 7.77395C6.69409 7.8392 6.74273 7.9284 6.80482 8.04051C6.92909 8.26488 7.10846 8.58329 7.33978 8.99017C7.80248 9.80407 8.47383 10.9735 9.32965 12.4558L11.9601 17.0118L11.9307 17.1211C11.9068 17.2106 11.8838 17.2379 11.8649 17.2512C11.8622 17.2518 11.8585 17.2528 11.8534 17.2539C11.8352 17.2578 11.8083 17.2625 11.7717 17.2677C11.6988 17.2781 11.5953 17.2895 11.4611 17.3018C11.1932 17.3263 10.8096 17.3537 10.3177 17.3831L10.3177 17.3831M7.15753 5.91379L10.3177 17.3831M10.3177 17.3831C9.90209 17.408 9.50076 17.4371 9.18871 17.4639C9.03278 17.4772 8.89844 17.4901 8.79545 17.5017C8.69818 17.5126 8.6156 17.5237 8.57347 17.5353L8.57346 17.5353M10.3177 17.3831L8.57346 17.5353M8.57346 17.5353C7.93682 17.7107 7.46777 18.2006 7.31339 18.8483L7.31338 18.8483M8.57346 17.5353L7.31338 18.8483M7.31338 18.8483C7.23775 19.1659 7.23841 19.3833 7.31543 19.7046L7.31544 19.7046M7.31338 18.8483L7.31544 19.7046M7.31544 19.7046C7.34367 19.8223 7.42237 19.9989 7.5031 20.1534M7.31544 19.7046L7.5031 20.1534M8.14924 6.44964L8.14922 6.44964C8.04047 6.45554 7.96248 6.47401 7.89876 6.50435C7.83569 6.53438 7.77743 6.58039 7.71436 6.65459L7.71434 6.65461C7.60679 6.78108 7.55846 6.91505 7.55825 7.13126C7.55919 7.13515 7.56644 7.16418 7.61152 7.25661C7.66638 7.36908 7.76676 7.55635 7.94836 7.88176C8.31082 8.53124 8.9901 9.71902 10.2577 11.9316L12.977 16.678L12.9933 16.7064L12.9962 16.739L13.013 16.924C13.0403 17.2246 12.959 17.5434 12.7909 17.7901M8.14924 6.44964L12.667 17.7056M8.14924 6.44964C8.27323 6.44289 8.38429 6.46394 8.47252 6.50556L8.6045 6.56786L10.1649 9.2346L11.7487 11.9414L11.7824 11.9989L11.8476 12.0125L12.0039 12.0451M8.14924 6.44964L12.0345 11.8982M12.7909 17.7901L12.667 17.7056M12.7909 17.7901C12.7909 17.7901 12.7909 17.7901 12.7909 17.7901L12.667 17.7056M12.7909 17.7901C12.734 17.8737 12.6826 17.9388 12.6128 18.0003C12.5449 18.0601 12.4646 18.1118 12.3565 18.1752L12.0992 18.3259L12.0683 18.344L12.0326 18.3462L10.4416 18.4437L8.88586 18.5389M12.667 17.7056C12.5599 17.8628 12.4941 17.9207 12.2806 18.0458L12.0234 18.1965L10.4324 18.2939L8.84145 18.3914M8.88586 18.5389L8.91644 18.5213L8.84145 18.3914M8.88586 18.5389L8.85061 18.5411L8.84145 18.3914M8.88586 18.5389L8.6864 18.6541C8.58548 18.7123 8.53968 18.7434 8.50801 18.7739L8.28194 18.8418C8.3688 18.6804 8.41048 18.6402 8.6114 18.5242L8.84145 18.3914M12.5595 11.8253C12.6297 11.7269 12.6551 11.6166 12.6348 11.4911C12.6161 11.3753 12.5592 11.25 12.4778 11.109C12.3164 10.8296 12.288 10.6888 12.3168 10.5167C12.3757 10.1649 12.7365 9.92347 13.069 10.0017L13.069 10.0017C13.1704 10.0256 13.2337 10.0552 13.2978 10.1114C13.3681 10.1731 13.445 10.2717 13.5606 10.449L13.5677 10.4599C13.665 10.6091 13.7292 10.7075 13.7897 10.767C13.87 10.8458 13.948 10.8621 14.0251 10.8781L14.0269 10.8785L14.0269 10.8785C14.138 10.9017 14.2478 10.8964 14.3494 10.8527C14.4507 10.8092 14.5307 10.7331 14.5923 10.6371L14.5923 10.6371C14.7051 10.4609 14.6659 10.2674 14.5675 10.0291C14.4185 9.66812 14.6432 9.24327 15.0079 9.16913L14.978 9.02214L15.0079 9.16913C15.1543 9.13935 15.3268 9.1648 15.4628 9.23752L15.4628 9.23754C15.4937 9.25403 15.5095 9.26394 15.5248 9.27711C15.5409 9.29087 15.5618 9.31289 15.5947 9.35761C15.6629 9.45036 15.764 9.6142 15.9621 9.93998L16.3761 10.6204L16.4099 10.6761L16.4737 10.6894L16.6299 10.7219L12.0345 11.8982M12.5595 11.8253L12.4374 11.7382L12.5595 11.8253C12.5595 11.8253 12.5595 11.8253 12.5595 11.8253ZM12.5595 11.8253C12.4956 11.9149 12.4159 11.9852 12.3166 12.0246C12.2171 12.0642 12.1112 12.0675 12.0039 12.0451M12.0039 12.0451L12.0039 12.0451L12.0345 11.8982M12.0039 12.0451L12.0345 11.8982M7.5031 20.1534C7.54455 20.2327 7.58875 20.3103 7.6309 20.3767M7.5031 20.1534L7.6309 20.3767M7.6309 20.3767C7.6714 20.4405 7.71538 20.5025 7.75685 20.544L7.6309 20.3767ZM8.3958 19.5589C8.29714 19.3563 8.30244 19.1205 8.41404 18.9129L17.0336 9.93019L17.1723 9.87296C17.1723 9.87295 17.1723 9.87295 17.1723 9.87294C17.0704 9.62601 17.1552 9.29975 17.3672 9.13095C17.5484 8.98664 17.8194 8.95935 18.0465 9.07256L18.1713 9.13482L19.5799 11.5554C20.3592 12.8944 20.75 13.5672 20.9653 13.9889C21.1756 14.4008 21.2137 14.5632 21.286 14.887C21.5606 16.1176 21.2021 17.5218 20.3718 18.4683L20.4846 18.5673L20.3718 18.4683C20.1528 18.7181 20.0296 18.8493 19.7652 19.0341C19.493 19.2242 19.0748 19.4685 18.2643 19.9364C17.723 20.2489 17.337 20.4681 17.0649 20.6166C16.789 20.7671 16.6396 20.8397 16.5658 20.8655C15.9906 21.0667 15.3328 21.1486 14.7577 21.092C14.7193 21.0882 14.5975 21.0661 14.3991 21.0259C14.2049 20.9865 13.9462 20.9317 13.6412 20.8654C13.0311 20.7328 12.2372 20.5546 11.4069 20.3628L8.45527 19.681L8.3958 19.5589L8.3958 19.5589Z" stroke="white" stroke-opacity="0.8" stroke-width="0.3"/>
</svg>
