<svg width="24" height="22" viewBox="0 0 24 22" fill="none" xmlns="http://www.w3.org/2000/svg">
<path d="M22.9631 9.73906C23.6146 9.29618 23.3012 8.27744 22.5134 8.27744H15.696C15.3532 8.27744 15.0486 8.0591 14.9384 7.73454L12.8142 1.47576C12.5686 0.751907 11.5448 0.751906 11.2991 1.47576L9.17495 7.73454C9.06479 8.0591 8.76013 8.27744 8.41739 8.27744H1.59848C0.810802 8.27744 0.497247 9.29589 1.14853 9.73891L6.66284 13.4899C6.96301 13.694 7.08807 14.0747 6.96744 14.4171L4.81173 20.5362C4.55382 21.2682 5.38473 21.9018 6.02239 21.4592L11.6006 17.588C11.8749 17.3977 12.2385 17.3977 12.5128 17.588L18.089 21.4578C18.7268 21.9005 19.5579 21.2665 19.2995 20.5344L17.1406 14.4176C17.0197 14.075 17.1448 13.6939 17.4453 13.4897L22.9631 9.73906Z" fill="#FAC12F"/>
</svg>
